<?xml version="1.0" encoding="utf-8"?>
<!-- Generator: Adobe Illustrator 24.0.3, SVG Export Plug-In . SVG Version: 6.00 Build 0)  -->
<svg version="1.1" xmlns="http://www.w3.org/2000/svg" xmlns:xlink="http://www.w3.org/1999/xlink" x="0px" y="0px"
	 viewBox="0 0 233.2 218.5" style="enable-background:new 0 0 233.2 218.5;" xml:space="preserve">
<style type="text/css">
	.st0{fill:#00A651;}
</style>
<g id="Layer_1">
	<path class="st0" d="M168,117.1h52.5c-19.9,62.8-103.4,97.3-103.4,97.3h-0.5c0,0-82.6-34.1-103.1-96.3h42.4l11.7-16.9L91,154.9
		l25.6-56.1l25.5,56l19.1-49.4L168,117.1z"/>
	<path class="st0" d="M224.7,90.1c0,5.5-0.5,10.9-1.5,16h-49l-15.1-25.9l-18,46.3l-24.7-54.2l-25.3,55.6L69.8,78.9l-19.7,28.3H10.6
		c-1.1-5.5-1.7-11.2-1.7-17C8.9,19.4,56.6,9,56.6,9s60.2-12.4,60.4,49.2C117.1-3.2,177,9,177,9S224.7,18.7,224.7,90.1z"/>
</g>
<g id="Layer_2">
</g>
</svg>
